<mxfile host="app.diagrams.net" modified="2021-11-16T06:27:20.788Z" agent="5.0 (Windows NT 10.0; WOW64) AppleWebKit/537.36 (KHTML, like Gecko) Chrome/72.0.3626.121 Safari/537.36" etag="5DOXQI3rZVZGPpKgkPAc" version="15.7.3" type="github">
  <diagram id="hCwzUeo3Vxdz24-weV1R" name="第 1 页">
    <mxGraphModel dx="1422" dy="762" grid="1" gridSize="10" guides="1" tooltips="1" connect="1" arrows="1" fold="1" page="1" pageScale="1" pageWidth="827" pageHeight="1169" math="0" shadow="0">
      <root>
        <mxCell id="0" />
        <mxCell id="1" parent="0" />
        <mxCell id="_rcWpWvEHpEqDDZf0fPB-1" value="新增/编辑模板" style="rounded=0;whiteSpace=wrap;html=1;fillColor=#d5e8d4;strokeColor=#82b366;" vertex="1" parent="1">
          <mxGeometry x="220" y="340" width="100" height="50" as="geometry" />
        </mxCell>
        <mxCell id="_rcWpWvEHpEqDDZf0fPB-2" value="发布公告" style="rounded=0;whiteSpace=wrap;html=1;fillColor=#ffe6cc;strokeColor=#d79b00;" vertex="1" parent="1">
          <mxGeometry x="390" y="460" width="100" height="50" as="geometry" />
        </mxCell>
        <mxCell id="_rcWpWvEHpEqDDZf0fPB-3" value="开始" style="rounded=1;whiteSpace=wrap;html=1;fillColor=#f5f5f5;fontColor=#333333;strokeColor=#666666;" vertex="1" parent="1">
          <mxGeometry x="60" y="460" width="100" height="50" as="geometry" />
        </mxCell>
        <mxCell id="_rcWpWvEHpEqDDZf0fPB-4" value="选择模板" style="rounded=0;whiteSpace=wrap;html=1;fillColor=#fff2cc;strokeColor=#d6b656;" vertex="1" parent="1">
          <mxGeometry x="220" y="460" width="100" height="50" as="geometry" />
        </mxCell>
        <mxCell id="_rcWpWvEHpEqDDZf0fPB-5" value="" style="endArrow=classic;html=1;rounded=0;exitX=1;exitY=0.5;exitDx=0;exitDy=0;entryX=0;entryY=0.5;entryDx=0;entryDy=0;" edge="1" parent="1" source="_rcWpWvEHpEqDDZf0fPB-3" target="_rcWpWvEHpEqDDZf0fPB-4">
          <mxGeometry width="50" height="50" relative="1" as="geometry">
            <mxPoint x="200" y="590" as="sourcePoint" />
            <mxPoint x="250" y="540" as="targetPoint" />
          </mxGeometry>
        </mxCell>
        <mxCell id="_rcWpWvEHpEqDDZf0fPB-6" value="" style="endArrow=classic;html=1;rounded=0;exitX=0.5;exitY=1;exitDx=0;exitDy=0;" edge="1" parent="1" source="_rcWpWvEHpEqDDZf0fPB-1" target="_rcWpWvEHpEqDDZf0fPB-4">
          <mxGeometry width="50" height="50" relative="1" as="geometry">
            <mxPoint x="330" y="640" as="sourcePoint" />
            <mxPoint x="380" y="590" as="targetPoint" />
          </mxGeometry>
        </mxCell>
        <mxCell id="_rcWpWvEHpEqDDZf0fPB-7" value="" style="endArrow=classic;html=1;rounded=0;exitX=1;exitY=0.5;exitDx=0;exitDy=0;" edge="1" parent="1" source="_rcWpWvEHpEqDDZf0fPB-4" target="_rcWpWvEHpEqDDZf0fPB-2">
          <mxGeometry width="50" height="50" relative="1" as="geometry">
            <mxPoint x="440" y="650" as="sourcePoint" />
            <mxPoint x="490" y="600" as="targetPoint" />
          </mxGeometry>
        </mxCell>
        <mxCell id="_rcWpWvEHpEqDDZf0fPB-8" value="公告发布记录" style="rounded=0;whiteSpace=wrap;html=1;fillColor=#e1d5e7;strokeColor=#9673a6;" vertex="1" parent="1">
          <mxGeometry x="550" y="460" width="100" height="50" as="geometry" />
        </mxCell>
        <mxCell id="_rcWpWvEHpEqDDZf0fPB-9" value="" style="endArrow=classic;html=1;rounded=0;exitX=1;exitY=0.5;exitDx=0;exitDy=0;entryX=0;entryY=0.5;entryDx=0;entryDy=0;" edge="1" parent="1" source="_rcWpWvEHpEqDDZf0fPB-2" target="_rcWpWvEHpEqDDZf0fPB-8">
          <mxGeometry width="50" height="50" relative="1" as="geometry">
            <mxPoint x="660" y="610" as="sourcePoint" />
            <mxPoint x="710" y="560" as="targetPoint" />
          </mxGeometry>
        </mxCell>
      </root>
    </mxGraphModel>
  </diagram>
</mxfile>
